<svg width="211" height="126" viewBox="0 0 211 126" fill="none" xmlns="http://www.w3.org/2000/svg">
<path d="M75.8836 36.1559V1.97742H65.7773V37.4313C68.0296 36.2859 72.4716 35.8191 75.8836 36.1511V36.1559Z" fill="white"/>
<path d="M65.7773 47.3545V70.5797H75.8836V47.7154C74.6949 47.8454 73.4196 47.9272 72.0288 47.9272C69.6514 47.9272 67.6013 47.7106 65.7773 47.3545Z" fill="white"/>
<path d="M41.0507 2.18909C30.2899 2.18909 21.5599 10.9142 21.5599 21.6798C21.5599 32.4454 30.285 41.1705 41.0507 41.1705C51.8163 41.1705 60.5414 32.4454 60.5414 21.6798C60.5414 10.9142 51.8163 2.18909 41.0507 2.18909ZM41.0507 31.3433C35.7136 31.3433 31.3871 27.0169 31.3871 21.6798C31.3871 16.3427 35.7136 12.0163 41.0507 12.0163C46.3877 12.0163 50.7142 16.3427 50.7142 21.6798C50.7142 27.0169 46.3877 31.3433 41.0507 31.3433Z" fill="white"/>
<path d="M162.09 0.5C151.084 0.5 142.162 9.42242 142.162 20.4287C142.162 31.4349 151.084 40.3573 162.09 40.3573C173.097 40.3573 182.019 31.4349 182.019 20.4287C182.019 9.42242 173.097 0.5 162.09 0.5ZM162.09 30.3088C156.633 30.3088 152.21 25.8861 152.21 20.4287C152.21 14.9713 156.633 10.5485 162.09 10.5485C167.548 10.5485 171.971 14.9713 171.971 20.4287C171.971 25.8861 167.548 30.3088 162.09 30.3088Z" fill="white"/>
<path d="M130.376 11.9374V2.42517H89.4695V11.9374H92.1497V27.0772H89.4695V36.5941H130.376V27.0772H103.932V11.9374H130.376Z" fill="white"/>
<path d="M17.2816 41.6229H22.816C30.9636 41.6229 35.2275 43.4902 38.9909 45.1409C42.2057 46.551 44.7467 47.6626 50.3773 47.6626C56.008 47.6626 58.549 46.551 61.7638 45.1409C65.5272 43.4902 69.7911 41.6229 77.9387 41.6229C86.0863 41.6229 90.3502 43.4902 94.1135 45.1409C97.3283 46.551 99.8693 47.6626 105.5 47.6626C111.131 47.6626 113.672 46.551 116.886 45.1409C120.65 43.4902 124.914 41.6229 133.061 41.6229C141.209 41.6229 145.478 43.4902 149.236 45.1409C152.451 46.551 154.992 47.6626 160.623 47.6626C166.253 47.6626 168.794 46.551 172.009 45.1409C175.772 43.4902 180.036 41.6229 188.184 41.6229H193.718V51.7292H188.184C182.553 51.7292 180.012 52.8409 176.798 54.251C173.034 55.9017 168.77 57.7689 160.623 57.7689C152.475 57.7689 148.206 55.9017 144.448 54.251C141.233 52.8409 138.692 51.7292 133.061 51.7292C127.431 51.7292 124.89 52.8409 121.675 54.251C117.911 55.9017 113.648 57.7689 105.5 57.7689C97.3524 57.7689 93.0885 55.9017 89.3251 54.251C86.1103 52.8409 83.5693 51.7292 77.9387 51.7292C72.308 51.7292 69.767 52.8409 66.5522 54.251C62.7888 55.9017 58.5249 57.7689 50.3773 57.7689C42.2297 57.7689 37.9658 55.9017 34.2024 54.251C30.9877 52.8409 28.4467 51.7292 22.816 51.7292H17.2816V41.6229Z" fill="white"/>
<path d="M30.6989 73.5543L25.718 64.7618C35.1938 59.3958 35.1794 48.8468 35.1794 48.7409L45.2857 48.6206C45.2953 49.2992 45.3146 65.2767 30.6989 73.5543Z" fill="white"/>
<path d="M140.891 74.6034L135.91 65.8109C145.242 60.5267 145.367 50.1942 145.372 49.7563L155.478 49.6697C155.488 50.3482 155.507 66.3258 140.891 74.6034Z" fill="white"/>
<path d="M170.103 78.2944L164.266 70.0457C172.673 64.0974 171.104 53.7649 171.085 53.6591L181.061 52.0372C181.172 52.7158 183.602 68.7415 170.103 78.2944Z" fill="white"/>
<path d="M14.3125 114.779H8.71875V115.927C10 116 10.9896 116.24 11.6875 116.646C12.3906 117.052 12.7448 117.602 12.75 118.294C12.7448 118.8 12.5495 119.229 12.1641 119.583C11.7786 119.943 11.2214 120.214 10.4922 120.396C9.76302 120.578 8.88542 120.669 7.85938 120.669C6.82812 120.669 5.94271 120.578 5.20312 120.396C4.46875 120.214 3.90625 119.943 3.51562 119.583C3.13021 119.229 2.9375 118.8 2.9375 118.294C2.9375 117.602 3.28906 117.052 3.99219 116.646C4.70052 116.24 5.70312 116 7 115.927V114.779H1.4375V113.419H14.3125V114.779ZM8.71875 107.872H13.0469V109.247H8.85938C8.94271 109.638 9.18229 109.995 9.57812 110.318C9.97917 110.635 10.526 110.904 11.2188 111.122C11.9115 111.336 12.7292 111.477 13.6719 111.544L13.1406 112.857C11.8802 112.758 10.7943 112.518 9.88281 112.138C8.97656 111.758 8.30208 111.263 7.85938 110.654C7.41667 111.263 6.73958 111.758 5.82812 112.138C4.91667 112.518 3.83333 112.758 2.57812 112.857L2.04688 111.544C2.98438 111.477 3.79948 111.336 4.49219 111.122C5.1849 110.904 5.72917 110.635 6.125 110.318C6.52083 109.995 6.76302 109.638 6.85156 109.247H2.70312V107.872H7V106.591H8.71875V107.872ZM7.85938 117.201C6.8125 117.201 6.02344 117.292 5.49219 117.474C4.96094 117.656 4.69792 117.93 4.70312 118.294C4.69792 118.654 4.96094 118.925 5.49219 119.107C6.02865 119.284 6.81771 119.372 7.85938 119.372C8.88021 119.372 9.65885 119.284 10.1953 119.107C10.737 118.925 11.0104 118.654 11.0156 118.294C11.0104 117.93 10.7396 117.656 10.2031 117.474C9.66667 117.292 8.88542 117.201 7.85938 117.201ZM28.1406 114.732H22.5469V116.091H26.5625V120.685H24.8281V117.497H16.6875V116.091H20.8281V114.732H15.2656V113.357H28.1406V114.732ZM18.6562 108.31H24.75V106.904H26.4688V112.31H16.9375V106.904H18.6562V108.31ZM24.75 110.919V109.607H18.6562V110.919H24.75ZM37.4844 109.294H29.1094V107.919H32.4375V106.497H34.1719V107.919H37.4844V109.294ZM33.2969 109.841C33.974 109.841 34.5729 109.948 35.0938 110.161C35.6146 110.375 36.0182 110.677 36.3047 111.068C36.5964 111.458 36.7448 111.909 36.75 112.419C36.7448 112.93 36.5964 113.38 36.3047 113.771C36.0182 114.161 35.6146 114.464 35.0938 114.677C34.5729 114.891 33.974 114.997 33.2969 114.997C32.6198 114.997 32.0182 114.891 31.4922 114.677C30.9661 114.464 30.5573 114.161 30.2656 113.771C29.974 113.38 29.8281 112.93 29.8281 112.419C29.8281 111.909 29.974 111.458 30.2656 111.068C30.5573 110.677 30.9661 110.375 31.4922 110.161C32.0182 109.948 32.6198 109.841 33.2969 109.841ZM33.2969 111.154C32.75 111.154 32.3151 111.266 31.9922 111.49C31.6745 111.714 31.5156 112.023 31.5156 112.419C31.5156 112.815 31.6745 113.122 31.9922 113.341C32.3151 113.56 32.75 113.664 33.2969 113.654C33.8438 113.664 34.2786 113.56 34.6016 113.341C34.9297 113.122 35.0938 112.815 35.0938 112.419C35.0938 112.023 34.9297 111.714 34.6016 111.49C34.2786 111.266 33.8438 111.154 33.2969 111.154ZM40.2344 110.31H42.2031V111.732H40.2344V115.404H38.5V106.56H40.2344V110.31ZM40.2344 120.685H38.5V117.451H30.8281V116.06H40.2344V120.685ZM47.9688 109.951C47.9635 110.794 48.0964 111.622 48.3672 112.435C48.6432 113.242 49.0417 113.966 49.5625 114.607C50.0833 115.247 50.6979 115.737 51.4062 116.076L50.3438 117.466C49.5938 117.086 48.9427 116.544 48.3906 115.841C47.8438 115.138 47.4167 114.326 47.1094 113.404C46.7917 114.388 46.3438 115.258 45.7656 116.013C45.1927 116.763 44.5104 117.336 43.7188 117.732L42.6562 116.341C43.3906 115.992 44.026 115.484 44.5625 114.818C45.1042 114.146 45.5156 113.388 45.7969 112.544C46.0833 111.695 46.2292 110.831 46.2344 109.951V107.701H47.9688V109.951ZM53.9844 112.091H56.1562V113.576H53.9844V120.685H52.25V106.56H53.9844V112.091ZM68.9375 120.685H67.2656V106.56H68.9375V120.685ZM66.0312 119.997H64.375V113.279H63.0312C62.9792 114.19 62.8177 114.982 62.5469 115.654C62.2812 116.32 61.9245 116.833 61.4766 117.193C61.0286 117.547 60.5156 117.721 59.9375 117.716C59.3281 117.721 58.7917 117.521 58.3281 117.115C57.8698 116.703 57.5156 116.117 57.2656 115.357C57.0156 114.591 56.8906 113.695 56.8906 112.669C56.8906 111.643 57.0156 110.753 57.2656 109.997C57.5156 109.237 57.8698 108.654 58.3281 108.247C58.7917 107.841 59.3281 107.638 59.9375 107.638C60.5052 107.638 61.0078 107.807 61.4453 108.146C61.888 108.484 62.2422 108.971 62.5078 109.607C62.7786 110.242 62.9479 110.997 63.0156 111.872H64.375V106.81H66.0312V119.997ZM59.9375 109.279C59.6406 109.273 59.3828 109.401 59.1641 109.661C58.9453 109.922 58.7786 110.307 58.6641 110.818C58.5495 111.328 58.4948 111.945 58.5 112.669C58.4948 113.393 58.5495 114.01 58.6641 114.521C58.7786 115.031 58.9453 115.417 59.1641 115.677C59.3828 115.938 59.6406 116.065 59.9375 116.06C60.4115 116.07 60.7786 115.781 61.0391 115.193C61.3047 114.604 61.4375 113.763 61.4375 112.669C61.4375 111.576 61.3047 110.734 61.0391 110.146C60.7786 109.557 60.4115 109.268 59.9375 109.279ZM75.7969 109.951C75.7969 110.836 75.9323 111.693 76.2031 112.521C76.4792 113.344 76.8802 114.073 77.4062 114.708C77.9375 115.344 78.5677 115.82 79.2969 116.138L78.25 117.529C77.4688 117.148 76.7943 116.602 76.2266 115.888C75.6641 115.175 75.2292 114.346 74.9219 113.404C74.6042 114.404 74.1562 115.284 73.5781 116.044C73.0052 116.805 72.3229 117.388 71.5312 117.794L70.4375 116.388C71.1823 116.039 71.8229 115.529 72.3594 114.857C72.901 114.185 73.3125 113.422 73.5938 112.568C73.8802 111.714 74.026 110.841 74.0312 109.951V107.701H75.7969V109.951ZM82.4219 120.701H80.7031V112.529H77.7344V111.122H80.7031V106.56H82.4219V120.701ZM99.3438 110.138H101.312V111.591H99.3438V115.076H97.6094V106.56H99.3438V110.138ZM99.3438 120.513H90.2188V115.747H99.3438V120.513ZM91.9375 119.107H97.625V117.122H91.9375V119.107ZM96.5938 109.31H88.2188V107.919H91.5469V106.466H93.2812V107.919H96.5938V109.31ZM92.4062 109.826C93.0781 109.826 93.6745 109.932 94.1953 110.146C94.7161 110.359 95.1224 110.659 95.4141 111.044C95.7057 111.425 95.8542 111.862 95.8594 112.357C95.8542 112.857 95.7057 113.3 95.4141 113.685C95.1276 114.065 94.724 114.362 94.2031 114.576C93.6823 114.784 93.0833 114.888 92.4062 114.888C91.724 114.888 91.1198 114.784 90.5938 114.576C90.0729 114.362 89.6667 114.065 89.375 113.685C89.0833 113.3 88.9375 112.857 88.9375 112.357C88.9375 111.862 89.0833 111.425 89.375 111.044C89.6667 110.659 90.0755 110.359 90.6016 110.146C91.1276 109.932 91.7292 109.826 92.4062 109.826ZM92.4062 111.138C91.8646 111.138 91.4323 111.247 91.1094 111.466C90.7865 111.68 90.625 111.977 90.625 112.357C90.625 112.742 90.7839 113.044 91.1016 113.263C91.4245 113.482 91.8594 113.591 92.4062 113.591C92.9531 113.591 93.388 113.482 93.7109 113.263C94.0391 113.044 94.2031 112.742 94.2031 112.357C94.2031 111.977 94.0391 111.68 93.7109 111.466C93.388 111.247 92.9531 111.138 92.4062 111.138ZM105.516 108.216C105.51 109.456 105.445 110.599 105.32 111.646C105.195 112.693 104.966 113.719 104.633 114.724C104.305 115.724 103.844 116.664 103.25 117.544L101.891 116.81C102.625 115.773 103.146 114.685 103.453 113.544C103.766 112.398 103.951 111.091 104.008 109.622H102.297V108.216H105.516ZM108.672 108.216C108.667 108.951 108.654 109.612 108.633 110.201C108.612 110.789 108.57 111.367 108.508 111.935H109.938V106.904H111.578V120.013H109.938V113.341H108.32C107.982 115.284 107.344 116.945 106.406 118.326L105.078 117.576C105.615 116.81 106.031 116 106.328 115.146C106.63 114.286 106.839 113.417 106.953 112.536C107.073 111.656 107.146 110.685 107.172 109.622H105.938V108.216H108.672ZM114.312 120.685H112.641V106.56H114.312V120.685ZM124.688 108.029C124.682 108.628 124.807 109.195 125.062 109.732C125.318 110.268 125.695 110.74 126.195 111.146C126.695 111.552 127.302 111.862 128.016 112.076L127.125 113.419C126.359 113.18 125.701 112.823 125.148 112.349C124.596 111.875 124.164 111.313 123.852 110.661C123.534 111.406 123.078 112.047 122.484 112.583C121.896 113.12 121.188 113.523 120.359 113.794L119.5 112.419C120.24 112.185 120.867 111.849 121.383 111.411C121.898 110.969 122.286 110.458 122.547 109.88C122.812 109.302 122.948 108.685 122.953 108.029V107.06H124.688V108.029ZM130.797 109.435H132.766V110.857H130.797V113.857H129.062V106.56H130.797V109.435ZM130.797 118.076H123.297V119.185H131.234V120.56H121.578V116.81H129.062V115.779H121.562V114.435H130.797V118.076ZM137.281 107.591C137.99 107.591 138.62 107.797 139.172 108.208C139.724 108.615 140.156 109.195 140.469 109.951C140.786 110.701 140.948 111.576 140.953 112.576C140.948 113.586 140.786 114.469 140.469 115.224C140.156 115.979 139.724 116.56 139.172 116.966C138.62 117.372 137.99 117.576 137.281 117.576C136.568 117.576 135.932 117.372 135.375 116.966C134.818 116.555 134.383 115.971 134.07 115.216C133.758 114.461 133.604 113.581 133.609 112.576C133.604 111.581 133.758 110.706 134.07 109.951C134.383 109.195 134.818 108.615 135.375 108.208C135.932 107.797 136.568 107.591 137.281 107.591ZM137.281 109.154C136.885 109.154 136.536 109.292 136.234 109.568C135.932 109.839 135.698 110.232 135.531 110.747C135.365 111.258 135.281 111.867 135.281 112.576C135.281 113.289 135.365 113.904 135.531 114.419C135.698 114.935 135.932 115.331 136.234 115.607C136.536 115.878 136.885 116.013 137.281 116.013C137.682 116.013 138.034 115.878 138.336 115.607C138.638 115.331 138.87 114.935 139.031 114.419C139.198 113.904 139.281 113.289 139.281 112.576C139.281 111.867 139.198 111.255 139.031 110.74C138.87 110.224 138.638 109.831 138.336 109.56C138.034 109.289 137.682 109.154 137.281 109.154ZM144.547 111.982H146.719V113.451H144.547V120.685H142.812V106.56H144.547V111.982ZM160.203 115.888H157.062V120.685H155.297V115.888H152.172V120.685H150.391V115.888H147.297V114.482H160.203V115.888ZM153.719 107.06C154.714 107.065 155.596 107.198 156.367 107.458C157.138 107.719 157.737 108.086 158.164 108.56C158.596 109.034 158.812 109.586 158.812 110.216C158.812 110.836 158.596 111.38 158.164 111.849C157.737 112.318 157.138 112.68 156.367 112.935C155.596 113.185 154.714 113.31 153.719 113.31C152.719 113.31 151.833 113.185 151.062 112.935C150.297 112.68 149.703 112.318 149.281 111.849C148.859 111.38 148.651 110.836 148.656 110.216C148.651 109.586 148.859 109.034 149.281 108.56C149.703 108.086 150.297 107.719 151.062 107.458C151.833 107.198 152.719 107.065 153.719 107.06ZM153.719 108.466C153.052 108.466 152.471 108.536 151.977 108.677C151.482 108.813 151.099 109.013 150.828 109.279C150.562 109.539 150.432 109.852 150.438 110.216C150.432 110.57 150.562 110.878 150.828 111.138C151.099 111.393 151.482 111.591 151.977 111.732C152.471 111.867 153.052 111.935 153.719 111.935C154.385 111.935 154.966 111.867 155.461 111.732C155.956 111.591 156.339 111.393 156.609 111.138C156.88 110.878 157.016 110.57 157.016 110.216C157.016 109.852 156.88 109.539 156.609 109.279C156.339 109.013 155.956 108.813 155.461 108.677C154.966 108.536 154.385 108.466 153.719 108.466ZM162.578 122.56H161.094L161.906 118.185H163.891L162.578 122.56ZM173.625 107.185C174.333 107.18 174.969 107.302 175.531 107.552C176.094 107.802 176.534 108.154 176.852 108.607C177.169 109.06 177.328 109.576 177.328 110.154C177.328 110.721 177.169 111.232 176.852 111.685C176.534 112.138 176.091 112.49 175.523 112.74C174.961 112.99 174.328 113.112 173.625 113.107C172.927 113.112 172.297 112.99 171.734 112.74C171.177 112.49 170.74 112.141 170.422 111.693C170.109 111.24 169.953 110.727 169.953 110.154C169.953 109.576 170.109 109.06 170.422 108.607C170.74 108.154 171.177 107.802 171.734 107.552C172.292 107.302 172.922 107.18 173.625 107.185ZM173.625 108.591C173.24 108.586 172.896 108.648 172.594 108.779C172.292 108.904 172.055 109.086 171.883 109.326C171.716 109.56 171.635 109.836 171.641 110.154C171.635 110.466 171.716 110.74 171.883 110.974C172.055 111.203 172.292 111.38 172.594 111.505C172.896 111.625 173.24 111.685 173.625 111.685C174.026 111.685 174.38 111.625 174.688 111.505C175 111.38 175.242 111.203 175.414 110.974C175.586 110.74 175.672 110.466 175.672 110.154C175.672 109.836 175.586 109.56 175.414 109.326C175.242 109.086 175 108.904 174.688 108.779C174.38 108.648 174.026 108.586 173.625 108.591ZM180.828 120.669H179.109V106.576H180.828V120.669ZM169.031 114.076C170.719 114.076 172.328 114.044 173.859 113.982C175.391 113.914 176.833 113.779 178.188 113.576L178.312 114.857C177.198 115.07 175.958 115.229 174.594 115.333V120.247H172.844V115.435C171.885 115.477 170.88 115.497 169.828 115.497C169.703 115.508 169.51 115.513 169.25 115.513L169.031 114.076ZM194.312 114.576H184.406V107.794H194.203V109.201H186.125V113.185H194.312V114.576ZM195.75 118.888H182.844V117.451H195.75V118.888ZM209.562 115.888H206.422V120.685H204.656V115.888H201.531V120.685H199.75V115.888H196.656V114.482H209.562V115.888ZM203.078 107.06C204.073 107.065 204.956 107.198 205.727 107.458C206.497 107.719 207.096 108.086 207.523 108.56C207.956 109.034 208.172 109.586 208.172 110.216C208.172 110.836 207.956 111.38 207.523 111.849C207.096 112.318 206.497 112.68 205.727 112.935C204.956 113.185 204.073 113.31 203.078 113.31C202.078 113.31 201.193 113.185 200.422 112.935C199.656 112.68 199.062 112.318 198.641 111.849C198.219 111.38 198.01 110.836 198.016 110.216C198.01 109.586 198.219 109.034 198.641 108.56C199.062 108.086 199.656 107.719 200.422 107.458C201.193 107.198 202.078 107.065 203.078 107.06ZM203.078 108.466C202.411 108.466 201.831 108.536 201.336 108.677C200.841 108.813 200.458 109.013 200.188 109.279C199.922 109.539 199.792 109.852 199.797 110.216C199.792 110.57 199.922 110.878 200.188 111.138C200.458 111.393 200.841 111.591 201.336 111.732C201.831 111.867 202.411 111.935 203.078 111.935C203.745 111.935 204.326 111.867 204.82 111.732C205.315 111.591 205.698 111.393 205.969 111.138C206.24 110.878 206.375 110.57 206.375 110.216C206.375 109.852 206.24 109.539 205.969 109.279C205.698 109.013 205.315 108.813 204.82 108.677C204.326 108.536 203.745 108.466 203.078 108.466Z" fill="white"/>
</svg>
