<svg width="25" height="25" viewBox="0 0 25 25" fill="none" xmlns="http://www.w3.org/2000/svg">
<path d="M3.30322 12.1542H8.30322M3.30322 12.1542C3.30322 17.1247 7.33266 21.1542 12.3032 21.1542M3.30322 12.1542C3.30322 7.18361 7.33266 3.15417 12.3032 3.15417M8.30322 12.1542H16.3032M8.30322 12.1542C8.30322 17.1247 10.0941 21.1542 12.3032 21.1542M8.30322 12.1542C8.30322 7.18361 10.0941 3.15417 12.3032 3.15417M16.3032 12.1542H21.3032M16.3032 12.1542C16.3032 7.18361 14.5124 3.15417 12.3032 3.15417M16.3032 12.1542C16.3032 17.1247 14.5124 21.1542 12.3032 21.1542M21.3032 12.1542C21.3032 7.18361 17.2738 3.15417 12.3032 3.15417M21.3032 12.1542C21.3032 17.1247 17.2738 21.1542 12.3032 21.1542" stroke="#373D42" stroke-width="2" stroke-linecap="round" stroke-linejoin="round"/>
</svg>
