<svg width="75" height="33" viewBox="0 0 75 33" fill="none" xmlns="http://www.w3.org/2000/svg">
<path d="M24.9209 15.1326V0.77478H20.6754V15.6683C21.6215 15.1872 23.4875 14.9911 24.9209 15.1305V15.1326Z" fill="#00AEBB"/>
<path d="M20.6754 19.837V29.5935H24.9209V19.9886C24.4215 20.0432 23.8858 20.0776 23.3015 20.0776C22.3028 20.0776 21.4416 19.9866 20.6754 19.837Z" fill="#00AEBB"/>
<path d="M10.2882 0.863831C5.76777 0.863831 2.10049 4.52909 2.10049 9.05153C2.10049 13.574 5.76575 17.2392 10.2882 17.2392C14.8106 17.2392 18.4759 13.574 18.4759 9.05153C18.4759 4.52909 14.8106 0.863831 10.2882 0.863831ZM10.2882 13.111C8.04618 13.111 6.22871 11.2935 6.22871 9.05153C6.22871 6.80951 8.04618 4.99205 10.2882 4.99205C12.5302 4.99205 14.3477 6.80951 14.3477 9.05153C14.3477 11.2935 12.5302 13.111 10.2882 13.111Z" fill="#00AEBB"/>
<path d="M61.1348 0.154175C56.5113 0.154175 52.7631 3.90232 52.7631 8.52584C52.7631 13.1494 56.5113 16.8975 61.1348 16.8975C65.7583 16.8975 69.5065 13.1494 69.5065 8.52584C69.5065 3.90232 65.7583 0.154175 61.1348 0.154175ZM61.1348 12.6763C58.8422 12.6763 56.9843 10.8184 56.9843 8.52584C56.9843 6.23329 58.8422 4.37539 61.1348 4.37539C63.4273 4.37539 65.2852 6.23329 65.2852 8.52584C65.2852 10.8184 63.4273 12.6763 61.1348 12.6763Z" fill="#00AEBB"/>
<path d="M47.8121 4.9588V0.962891H30.628V4.9588H31.7539V11.3188H30.628V15.3166H47.8121V11.3188H36.7033V4.9588H47.8121Z" fill="#00AEBB"/>
<path d="M0.303223 17.4292H2.62812C6.05079 17.4292 7.84197 18.2136 9.4229 18.907C10.7734 19.4994 11.8408 19.9664 14.2061 19.9664C16.5715 19.9664 17.6389 19.4994 18.9894 18.907C20.5703 18.2136 22.3615 17.4292 25.7841 17.4292C29.2068 17.4292 30.998 18.2136 32.5789 18.907C33.9294 19.4994 34.9968 19.9664 37.3622 19.9664C39.7275 19.9664 40.7949 19.4994 42.1454 18.907C43.7263 18.2136 45.5175 17.4292 48.9402 17.4292C52.3628 17.4292 54.156 18.2136 55.735 18.907C57.0854 19.4994 58.1529 19.9664 60.5182 19.9664C62.8835 19.9664 63.951 19.4994 65.3014 18.907C66.8824 18.2136 68.6735 17.4292 72.0962 17.4292H74.4211V21.6747H72.0962C69.7309 21.6747 68.6634 22.1417 67.313 22.734C65.732 23.4274 63.9408 24.2118 60.5182 24.2118C57.0955 24.2118 55.3023 23.4274 53.7234 22.734C52.3729 22.1417 51.3055 21.6747 48.9402 21.6747C46.5748 21.6747 45.5074 22.1417 44.1569 22.734C42.576 23.4274 40.7848 24.2118 37.3622 24.2118C33.9395 24.2118 32.1483 23.4274 30.5674 22.734C29.2169 22.1417 28.1495 21.6747 25.7841 21.6747C23.4188 21.6747 22.3514 22.1417 21.0009 22.734C19.42 23.4274 17.6288 24.2118 14.2061 24.2118C10.7835 24.2118 8.99229 23.4274 7.41136 22.734C6.06089 22.1417 4.99346 21.6747 2.62812 21.6747H0.303223V17.4292Z" fill="#00AEBB"/>
<path d="M5.93961 30.8429L3.8472 27.1493C7.82784 24.8952 7.82177 20.4637 7.82177 20.4193L12.0672 20.3687C12.0713 20.6538 12.0794 27.3657 5.93961 30.8429Z" fill="#00AEBB"/>
<path d="M52.2294 31.2836L50.137 27.59C54.057 25.3703 54.1095 21.0298 54.1116 20.8458L58.357 20.8094C58.3611 21.0945 58.3692 27.8064 52.2294 31.2836Z" fill="#00AEBB"/>
<path d="M64.5008 32.8342L62.0486 29.369C65.5804 26.8703 64.9214 22.5298 64.9133 22.4853L69.1042 21.804C69.1507 22.0891 70.1716 28.8212 64.5008 32.8342Z" fill="#00AEBB"/>
</svg>
