<svg width="25" height="25" viewBox="0 0 25 25" fill="none" xmlns="http://www.w3.org/2000/svg">
<path d="M21.6687 10.0562C21.6687 15.0742 17.6013 17.9309 12.5825 17.9309C7.56372 17.9309 3.49634 15.0742 3.49634 10.0562H21.6687Z" stroke="#B7C0C6" stroke-width="1.5" stroke-linecap="round" stroke-linejoin="round"/>
<path d="M9.19032 17.4505L8.1767 19.4777C8.13059 19.5701 8.10885 19.6727 8.11354 19.7758C8.11823 19.8789 8.14918 19.9791 8.20347 20.0669C8.25777 20.1547 8.33359 20.2271 8.42375 20.2774C8.51391 20.3276 8.61542 20.354 8.71864 20.354H16.4504C16.5536 20.354 16.6551 20.3276 16.7453 20.2774C16.8354 20.2271 16.9113 20.1547 16.9656 20.0669C17.0198 19.9791 17.0508 19.8789 17.0555 19.7758C17.0602 19.6727 17.0384 19.5701 16.9923 19.4777L15.9747 17.4505" stroke="#B7C0C6" stroke-width="1.5" stroke-linecap="round" stroke-linejoin="round"/>
<path d="M20.4572 10.0564C20.4572 9.4138 20.202 8.7975 19.7476 8.3431C19.2932 7.8887 18.6769 7.63343 18.0342 7.63343H16.0207C15.7781 6.80925 15.2895 6.07883 14.6204 5.5399C13.9513 5.00097 13.1336 4.67924 12.2766 4.61776C11.4197 4.55628 10.5644 4.75798 9.82521 5.19587C9.08602 5.63377 8.4982 6.28696 8.14039 7.06806C8.00684 7.04551 7.87192 7.03201 7.73656 7.02768C6.93329 7.02768 6.16292 7.34678 5.59492 7.91477C5.02692 8.48277 4.70782 9.25314 4.70782 10.0564" stroke="#B7C0C6" stroke-width="1.5" stroke-linecap="round" stroke-linejoin="round"/>
</svg>
