<svg width="87" height="29" viewBox="0 0 87 29" fill="none" xmlns="http://www.w3.org/2000/svg">
<path d="M16.6155 0.725586C11.1428 0.725586 6.70789 5.16056 6.70789 10.6332C6.70789 16.1059 11.1428 20.5408 16.6155 20.5408C22.0881 20.5408 26.5231 16.1059 26.5231 10.6332C26.5231 5.16056 22.0881 0.725586 16.6155 0.725586ZM16.6155 15.544C13.9056 15.544 11.7046 13.3431 11.7046 10.6332C11.7046 7.92332 13.9056 5.72237 16.6155 5.72237C19.3254 5.72237 21.5263 7.92332 21.5263 10.6332C21.5263 13.3431 19.3254 15.544 16.6155 15.544Z" fill="#00AEBB"/>
<path d="M70.1522 0.349121C64.6796 0.349121 60.2446 4.78407 60.2446 10.2567C60.2446 15.7294 64.6796 20.1643 70.1522 20.1643C75.6249 20.1643 80.0598 15.7294 80.0598 10.2567C80.0598 4.78407 75.6249 0.349121 70.1522 0.349121ZM70.1522 15.1676C67.4423 15.1676 65.2414 12.9666 65.2414 10.2567C65.2414 7.54683 67.4423 5.34588 70.1522 5.34588C72.8621 5.34588 75.0631 7.54683 75.0631 10.2567C75.0631 12.9666 72.8621 15.1676 70.1522 15.1676Z" fill="#00AEBB"/>
<path d="M53.5096 5.97387V0.950684H33.8067V5.97387H35.2146V13.9581H33.8067V18.9813H53.5096V13.9581H41.4076V5.97387H53.5096Z" fill="#00AEBB"/>
<path d="M0.0983887 20.7656H2.81488C6.81362 20.7656 8.90882 21.7174 10.7529 22.5502C12.3325 23.264 13.5751 23.8324 16.3379 23.8324C19.1006 23.8324 20.3498 23.264 21.9229 22.5502C23.7669 21.7108 25.8621 20.7656 29.8609 20.7656C33.8596 20.7656 35.9548 21.7174 37.7988 22.5502C39.3785 23.264 40.6211 23.8324 43.3838 23.8324C46.1466 23.8324 47.3958 23.264 48.9689 22.5502C50.8129 21.7108 52.9081 20.7656 56.9068 20.7656C60.9056 20.7656 63.0008 21.7174 64.8448 22.5502C66.4245 23.264 67.6671 23.8324 70.4298 23.8324C73.1926 23.8324 74.4418 23.264 76.0148 22.5502C77.8589 21.7108 79.9541 20.7656 83.9528 20.7656H86.6693V25.9012H83.9528C81.1901 25.9012 79.9409 26.4696 78.3678 27.1834C76.5238 28.0228 74.4286 28.968 70.4298 28.968C66.4311 28.968 64.3359 28.0162 62.4918 27.1834C60.9122 26.4696 59.6696 25.9012 56.9068 25.9012C54.1441 25.9012 52.8949 26.4696 51.3218 27.1834C49.4778 28.0228 47.3826 28.968 43.3838 28.968C39.3851 28.968 37.2899 28.0162 35.4459 27.1834C33.8662 26.4696 32.6236 25.9012 29.8609 25.9012C27.0981 25.9012 25.8489 26.4696 24.2759 27.1834C22.4318 28.0228 20.3366 28.968 16.3379 28.968C12.3391 28.968 10.2439 28.0162 8.39989 27.1834C6.82023 26.4696 5.57764 25.9012 2.81488 25.9012H0.0983887V20.7656Z" fill="#00AEBB"/>
</svg>
