<svg width="24" height="24" viewBox="0 0 24 24" fill="none" xmlns="http://www.w3.org/2000/svg">
<path d="M6.47062 20.4331H19.8591C20.1393 20.4331 20.3667 20.206 20.3667 19.9258L20.3665 14.232M7.8894 20.1181L20.0235 14.4599C20.2774 14.3414 20.3872 14.0395 20.2688 13.7856L17.8625 8.62563C17.7441 8.37168 17.4422 8.26141 17.1882 8.37983L11.7705 10.9064M9.71153 17.946C9.23208 19.7353 7.39287 20.7972 5.60354 20.3177C3.8142 19.8383 2.75211 17.9993 3.23156 16.2099L6.69675 3.27759C6.76927 3.00693 7.04723 2.84625 7.31789 2.91878L12.8177 4.3922C13.0884 4.46472 13.249 4.74285 13.1765 5.0135L9.71153 17.946ZM6.47062 17.1748H6.47254L6.47249 17.1767L6.47062 17.1767V17.1748Z" stroke="#00AEBB" stroke-width="1.92202" stroke-linecap="round" stroke-linejoin="round"/>
</svg>
