<svg width="24" height="24" viewBox="0 0 24 24" fill="none" xmlns="http://www.w3.org/2000/svg">
<path d="M6.98804 20.7476H20.4139C20.6949 20.7476 20.9229 20.52 20.9229 20.239L20.9227 14.5292M8.41078 20.4318L20.5787 14.7578C20.8334 14.639 20.9435 14.3362 20.8248 14.0816L18.4118 8.90724C18.293 8.65258 17.9902 8.542 17.7356 8.66075L12.3027 11.1944M10.238 18.2536C9.75721 20.0479 7.91286 21.1128 6.11853 20.632C4.32421 20.1512 3.25915 18.307 3.73994 16.5127L7.2148 3.54426C7.28753 3.27285 7.56626 3.11173 7.83767 3.18445L13.3529 4.66199C13.6243 4.73471 13.7854 5.01361 13.7126 5.28502L10.238 18.2536ZM6.98804 17.4803H6.98996L6.98992 17.4822L6.98804 17.4822V17.4803Z" stroke="white" stroke-width="1.92202" stroke-linecap="round" stroke-linejoin="round"/>
</svg>
